<?xml version="1.0" encoding="UTF-8" standalone="no"?>
<svg width="1440px" height="1024px" viewBox="0 0 1440 1024" version="1.1" xmlns="http://www.w3.org/2000/svg" xmlns:xlink="http://www.w3.org/1999/xlink" xmlns:sketch="http://www.bohemiancoding.com/sketch/ns">
    <!-- Generator: Sketch 3.3.3 (12081) - http://www.bohemiancoding.com/sketch -->
    <title>Desktop HD</title>
    <desc>Created with Sketch.</desc>
    <defs></defs>
    <g id="Welcome" stroke="none" stroke-width="1" fill="none" fill-rule="evenodd" sketch:type="MSPage">
        <g id="Desktop-HD" sketch:type="MSArtboardGroup">
            <path d="M218,-7.50579151 L218,1015.62802" id="Line" stroke="#FAFAFA" stroke-width="100" stroke-linecap="square" sketch:type="MSShapeGroup"></path>
            <path d="M730,-10.0869198 L730,624.999996" id="Line-Copy" stroke="#FAFAFA" stroke-width="100" stroke-linecap="square" sketch:type="MSShapeGroup"></path>
            <path d="M1230,-13.6909406 L1230,626.138459" id="Line-Copy-2" stroke="#FAFAFA" stroke-width="100" stroke-linecap="square" sketch:type="MSShapeGroup"></path>
            <path d="M730,825.727538 L730,1460.81445" id="Line-Copy-8" stroke="#FAFAFA" stroke-width="100" stroke-linecap="square" sketch:type="MSShapeGroup"></path>
            <path d="M1230,825.123518 L1230,1464.95292" id="Line-Copy-7" stroke="#FAFAFA" stroke-width="100" stroke-linecap="square" sketch:type="MSShapeGroup"></path>
            <path d="M1130,725.836419 L830,725.836419" id="Line-Copy-3" stroke="#FAFAFA" stroke-width="100" stroke-linecap="square" sketch:type="MSShapeGroup"></path>
            <path d="M428.405722,761.963168 L230.940952,25.0146153 L218,-23.281676 L314.592583,-49.1635805 L327.533535,-0.867289214 L480.169531,568.778003 L428.405722,761.963168 Z M480.169531,955.148334 L498.850669,1024.86729 L511.791621,1073.16358 L608.384204,1047.28168 L595.443251,998.985385 L531.93334,761.963168 L480.169531,955.148334 Z" id="Line-Copy-4" fill="#FAFAFA" sketch:type="MSShapeGroup"></path>
            <path d="M563.405722,761.963168 L365.940952,25.0146153 L353,-23.281676 L449.592583,-49.1635805 L462.533535,-0.867289214 L615.169531,568.778003 L563.405722,761.963168 Z M615.169531,955.148334 L633.850669,1024.86729 L646.791621,1073.16358 L743.384204,1047.28168 L730.443251,998.985385 L666.93334,761.963168 L615.169531,955.148334 Z" id="Line-Copy-6" fill="#FAFAFA" sketch:type="MSShapeGroup" transform="translate(548.192102, 512.000000) scale(-1, 1) translate(-548.192102, -512.000000) "></path>
        </g>
    </g>
</svg>